<svg width="328" height="309" viewBox="0 0 328 309" fill="none" xmlns="http://www.w3.org/2000/svg">
<g filter="url(#filter0_dd_2616_394)">
<g clip-path="url(#clip0_2616_394)">
<rect x="20" y="0.726135" width="288" height="288" rx="32" fill="white"/>
<rect x="20" y="0.726135" width="24.57" height="288" fill="#5C2576"/>
<rect x="40.5713" y="0.726135" width="24.57" height="288" fill="#702E75"/>
<rect x="61.1426" y="0.726135" width="24.57" height="288" fill="#8A3A75"/>
<rect x="81.7139" y="0.726135" width="24.57" height="288" fill="#A34874"/>
<rect x="102.286" y="0.726135" width="24.57" height="288" fill="#BB5374"/>
<rect x="122.857" y="0.726135" width="24.57" height="288" fill="#D35F74"/>
<rect x="143.429" y="0.726135" width="24.57" height="288" fill="#EA6B74"/>
<rect x="164" y="0.726135" width="24.57" height="288" fill="#ED7C74"/>
<rect x="184.571" y="0.726135" width="24.57" height="288" fill="#F18D73"/>
<rect x="205.143" y="0.726135" width="24.57" height="288" fill="#F69D71"/>
<rect x="225.714" y="0.726135" width="24.57" height="288" fill="#F9AF72"/>
<rect x="246.286" y="0.726135" width="24.57" height="288" fill="#FDBE71"/>
<rect x="266.857" y="0.726135" width="24.57" height="288" fill="#FFCC8D"/>
<rect x="287.429" y="0.726135" width="20.5714" height="288" fill="#FFE0BA"/>
<path d="M151.889 98.6042L105.367 128.768L119.903 138.734L160.796 112.266C161.428 111.996 162.107 111.857 162.793 111.857C163.48 111.857 164.159 111.996 164.791 112.266L206.838 139.524L221.79 129.847L173.612 98.6042C170.332 96.6346 166.577 95.5941 162.751 95.5941C158.924 95.5941 155.17 96.6346 151.889 98.6042Z" fill="white"/>
<path fill-rule="evenodd" clip-rule="evenodd" d="M261.968 111.614L173.612 54.2981C170.335 52.3292 166.584 51.2891 162.761 51.2891C158.938 51.2891 155.188 52.3292 151.91 54.2981L66.0753 109.937C64.1513 111.049 62.5496 112.643 61.4273 114.561C60.305 116.479 59.7007 118.657 59.6738 120.879C59.6469 123.101 60.1982 125.292 61.2737 127.237C62.3492 129.182 63.9118 130.814 65.8083 131.973L151.825 190.656C155.069 192.717 158.822 193.833 162.665 193.881C166.507 193.928 170.287 192.904 173.58 190.923L261.968 133.618C263.9 132.505 265.505 130.902 266.621 128.972C267.737 127.041 268.324 124.851 268.324 122.621C268.324 120.391 267.737 118.201 266.621 116.27C265.505 114.34 263.9 112.738 261.968 111.625V111.614ZM164.78 177.251C164.19 177.504 163.553 177.63 162.91 177.62C162.268 177.611 161.635 177.467 161.053 177.197L78.8165 121.131L160.796 67.9595C161.427 67.6898 162.107 67.5507 162.793 67.5507C163.48 67.5507 164.159 67.6898 164.791 67.9595L249.013 122.594L164.78 177.251Z" fill="white"/>
<path d="M252.762 149.928L261.968 155.899H261.957C263.889 157.012 265.494 158.614 266.61 160.544C267.726 162.475 268.313 164.665 268.313 166.895C268.313 169.125 267.726 171.316 266.61 173.246C265.494 175.177 263.889 176.779 261.957 177.892L173.58 235.197C170.289 237.183 166.509 238.211 162.666 238.166C158.823 238.12 155.068 237.003 151.825 234.941L65.8083 176.279C63.9118 175.12 62.3492 173.488 61.2737 171.543C60.1982 169.599 59.6469 167.407 59.6738 165.185C59.7007 162.963 60.305 160.785 61.4273 158.867C62.5496 156.949 64.1513 155.355 66.0753 154.243L74.8756 148.539L89.4431 158.548L78.7631 165.459L160.999 221.535C161.587 221.792 162.221 221.924 162.863 221.924C163.504 221.924 164.138 221.792 164.726 221.535L249.002 166.901L237.756 159.605L252.762 149.928Z" fill="white"/>
<rect x="20" y="192.726" width="288" height="96" fill="white"/>
<path d="M142.232 252.174C140.792 252.174 139.464 251.923 138.248 251.422C137.042 250.921 136.061 250.158 135.304 249.134C134.557 248.11 134.157 246.809 134.104 245.23H137.816C137.816 246.03 138.013 246.686 138.408 247.198C138.802 247.71 139.33 248.094 139.992 248.35C140.664 248.595 141.4 248.718 142.2 248.718C142.968 248.718 143.65 248.617 144.248 248.414C144.856 248.211 145.33 247.923 145.672 247.55C146.024 247.166 146.2 246.713 146.2 246.19C146.2 245.497 145.986 244.953 145.56 244.558C145.144 244.163 144.472 243.801 143.544 243.47L139.448 241.838C137.848 241.209 136.621 240.478 135.768 239.646C134.914 238.814 134.488 237.667 134.488 236.206C134.488 234.521 135.154 233.155 136.488 232.11C137.821 231.065 139.682 230.542 142.072 230.542C144.397 230.542 146.194 231.086 147.464 232.174C148.733 233.251 149.453 234.755 149.624 236.686H145.912C145.773 235.865 145.4 235.209 144.792 234.718C144.184 234.217 143.277 233.966 142.072 233.966C141.005 233.966 140.162 234.19 139.544 234.638C138.925 235.075 138.616 235.63 138.616 236.302C138.616 236.878 138.808 237.337 139.192 237.678C139.586 238.009 140.194 238.329 141.016 238.638L145.56 240.398C147.096 240.995 148.274 241.747 149.096 242.654C149.917 243.561 150.328 244.697 150.328 246.062C150.328 247.31 150.013 248.393 149.384 249.31C148.754 250.217 147.837 250.921 146.632 251.422C145.426 251.923 143.96 252.174 142.232 252.174ZM155.726 230.958H162.446C164.558 230.958 166.409 231.385 167.998 232.238C169.587 233.081 170.825 234.281 171.71 235.838C172.595 237.395 173.038 239.235 173.038 241.358C173.038 243.459 172.595 245.289 171.71 246.846C170.825 248.393 169.587 249.593 167.998 250.446C166.409 251.299 164.558 251.726 162.446 251.726H155.726V230.958ZM159.502 234.382V248.334H162.446C163.79 248.334 164.947 248.03 165.918 247.422C166.899 246.814 167.651 245.987 168.174 244.942C168.707 243.886 168.974 242.691 168.974 241.358C168.974 240.003 168.707 238.803 168.174 237.758C167.651 236.713 166.899 235.891 165.918 235.294C164.947 234.686 163.79 234.382 162.446 234.382H159.502ZM190.015 230.958H195.199L181.503 244.974V239.822L190.015 230.958ZM185.407 239.534L195.775 251.726H190.911L182.783 241.998L185.407 239.534ZM178.015 230.958H181.823V251.726H178.015V230.958Z" fill="url(#paint0_linear_2616_394)"/>
</g>
</g>
<defs>
<filter id="filter0_dd_2616_394" x="0" y="0.726135" width="328" height="308" filterUnits="userSpaceOnUse" color-interpolation-filters="sRGB">
<feFlood flood-opacity="0" result="BackgroundImageFix"/>
<feColorMatrix in="SourceAlpha" type="matrix" values="0 0 0 0 0 0 0 0 0 0 0 0 0 0 0 0 0 0 127 0" result="hardAlpha"/>
<feMorphology radius="50" operator="erode" in="SourceAlpha" result="effect1_dropShadow_2616_394"/>
<feOffset dx="-30" dy="30"/>
<feGaussianBlur stdDeviation="20"/>
<feComposite in2="hardAlpha" operator="out"/>
<feColorMatrix type="matrix" values="0 0 0 0 0.639216 0 0 0 0 0.282353 0 0 0 0 0.454902 0 0 0 1 0"/>
<feBlend mode="normal" in2="BackgroundImageFix" result="effect1_dropShadow_2616_394"/>
<feColorMatrix in="SourceAlpha" type="matrix" values="0 0 0 0 0 0 0 0 0 0 0 0 0 0 0 0 0 0 127 0" result="hardAlpha"/>
<feMorphology radius="50" operator="erode" in="SourceAlpha" result="effect2_dropShadow_2616_394"/>
<feOffset dx="30" dy="30"/>
<feGaussianBlur stdDeviation="20"/>
<feComposite in2="hardAlpha" operator="out"/>
<feColorMatrix type="matrix" values="0 0 0 0 0.992157 0 0 0 0 0.745098 0 0 0 0 0.443137 0 0 0 1 0"/>
<feBlend mode="normal" in2="effect1_dropShadow_2616_394" result="effect2_dropShadow_2616_394"/>
<feBlend mode="normal" in="SourceGraphic" in2="effect2_dropShadow_2616_394" result="shape"/>
</filter>
<linearGradient id="paint0_linear_2616_394" x1="133.573" y1="231.724" x2="222.152" y2="257.846" gradientUnits="userSpaceOnUse">
<stop stop-color="#5C2576"/>
<stop offset="0.295" stop-color="#BB5374"/>
<stop offset="0.66" stop-color="#F69D71"/>
<stop offset="0.9" stop-color="#FFCC8D"/>
<stop offset="1" stop-color="#FFE0BA"/>
</linearGradient>
<clipPath id="clip0_2616_394">
<rect x="20" y="0.726135" width="288" height="288" rx="32" fill="white"/>
</clipPath>
</defs>
</svg>
