<svg width="328" height="309" viewBox="0 0 328 309" fill="none" xmlns="http://www.w3.org/2000/svg">
<g filter="url(#filter0_dd_2607_239)">
<g clip-path="url(#clip0_2607_239)">
<rect x="20" y="0.934509" width="288" height="288" rx="32" fill="white"/>
<rect x="20" y="0.726135" width="20.5714" height="288" fill="#5C2576"/>
<rect x="40.5713" y="0.726135" width="20.5714" height="288" fill="#702E75"/>
<rect x="61.1431" y="0.726135" width="20.5714" height="288" fill="#8A3A75"/>
<rect x="81.7144" y="0.726135" width="20.5714" height="288" fill="#A34874"/>
<rect x="102.286" y="0.726135" width="20.5714" height="288" fill="#BB5374"/>
<rect x="122.857" y="0.726135" width="20.5714" height="288" fill="#D35F74"/>
<rect x="143.429" y="0.726135" width="20.5714" height="288" fill="#EA6B74"/>
<rect x="164" y="0.726135" width="20.5714" height="288" fill="#ED7C74"/>
<rect x="184.571" y="0.726135" width="20.5714" height="288" fill="#F18D73"/>
<rect x="205.143" y="0.726135" width="20.5714" height="288" fill="#F69D71"/>
<rect x="225.714" y="0.726135" width="20.5714" height="288" fill="#F9AF72"/>
<rect x="246.286" y="0.726135" width="20.5714" height="288" fill="#FDBE71"/>
<rect x="266.857" y="0.726135" width="20.5714" height="288" fill="#FFCC8D"/>
<rect x="287.429" y="0.726135" width="20.5714" height="288" fill="#FFE0BA"/>
<path d="M151.889 98.8126L105.367 128.977L119.903 138.942L160.796 112.474C161.428 112.204 162.107 112.065 162.793 112.065C163.48 112.065 164.159 112.204 164.791 112.474L206.838 139.733L221.79 130.055L173.612 98.8126C170.332 96.8429 166.577 95.8025 162.751 95.8025C158.924 95.8025 155.17 96.8429 151.889 98.8126Z" fill="white"/>
<path fill-rule="evenodd" clip-rule="evenodd" d="M261.968 111.822L173.612 54.5065C170.335 52.5376 166.584 51.4975 162.761 51.4975C158.938 51.4975 155.188 52.5376 151.91 54.5065L66.0753 110.145C64.1513 111.258 62.5496 112.851 61.4273 114.769C60.305 116.688 59.7007 118.865 59.6738 121.087C59.6469 123.31 60.1982 125.501 61.2737 127.446C62.3492 129.391 63.9118 131.022 65.8083 132.181L151.825 190.864C155.069 192.925 158.822 194.042 162.665 194.089C166.507 194.136 170.287 193.112 173.58 191.131L261.968 133.826C263.9 132.713 265.505 131.111 266.621 129.18C267.737 127.25 268.324 125.059 268.324 122.83C268.324 120.6 267.737 118.409 266.621 116.479C265.505 114.548 263.9 112.946 261.968 111.833V111.822ZM164.78 177.459C164.19 177.712 163.553 177.838 162.91 177.829C162.268 177.819 161.635 177.675 161.053 177.406L78.8165 121.339L160.796 68.1679C161.427 67.8982 162.107 67.7591 162.793 67.7591C163.48 67.7591 164.159 67.8982 164.791 68.1679L249.013 122.803L164.78 177.459Z" fill="white"/>
<path d="M252.762 150.136L261.968 156.107H261.957C263.889 157.22 265.494 158.822 266.61 160.753C267.726 162.683 268.313 164.874 268.313 167.104C268.313 169.333 267.726 171.524 266.61 173.454C265.494 175.385 263.889 176.987 261.957 178.1L173.58 235.405C170.289 237.391 166.509 238.419 162.666 238.374C158.823 238.329 155.068 237.212 151.825 235.149L65.8083 176.487C63.9118 175.329 62.3492 173.697 61.2737 171.752C60.1982 169.807 59.6469 167.616 59.6738 165.393C59.7007 163.171 60.305 160.994 61.4273 159.076C62.5496 157.157 64.1513 155.564 66.0753 154.452L74.8756 148.748L89.4431 158.756L78.7631 165.667L160.999 221.744C161.587 222 162.221 222.132 162.863 222.132C163.504 222.132 164.138 222 164.726 221.744L249.002 167.109L237.756 159.814L252.762 150.136Z" fill="white"/>
<rect x="20" y="192.935" width="288" height="96" fill="white"/>
<path d="M142.232 252.383C140.792 252.383 139.464 252.132 138.248 251.631C137.042 251.129 136.061 250.367 135.304 249.343C134.557 248.319 134.157 247.017 134.104 245.439H137.816C137.816 246.239 138.013 246.895 138.408 247.407C138.802 247.919 139.33 248.303 139.992 248.559C140.664 248.804 141.4 248.927 142.2 248.927C142.968 248.927 143.65 248.825 144.248 248.623C144.856 248.42 145.33 248.132 145.672 247.759C146.024 247.375 146.2 246.921 146.2 246.399C146.2 245.705 145.986 245.161 145.56 244.767C145.144 244.372 144.472 244.009 143.544 243.679L139.448 242.047C137.848 241.417 136.621 240.687 135.768 239.855C134.914 239.023 134.488 237.876 134.488 236.415C134.488 234.729 135.154 233.364 136.488 232.319C137.821 231.273 139.682 230.751 142.072 230.751C144.397 230.751 146.194 231.295 147.464 232.383C148.733 233.46 149.453 234.964 149.624 236.895H145.912C145.773 236.073 145.4 235.417 144.792 234.927C144.184 234.425 143.277 234.175 142.072 234.175C141.005 234.175 140.162 234.399 139.544 234.847C138.925 235.284 138.616 235.839 138.616 236.511C138.616 237.087 138.808 237.545 139.192 237.887C139.586 238.217 140.194 238.537 141.016 238.847L145.56 240.607C147.096 241.204 148.274 241.956 149.096 242.863C149.917 243.769 150.328 244.905 150.328 246.271C150.328 247.519 150.013 248.601 149.384 249.519C148.754 250.425 147.837 251.129 146.632 251.631C145.426 252.132 143.96 252.383 142.232 252.383ZM155.726 231.167H162.446C164.558 231.167 166.409 231.593 167.998 232.447C169.587 233.289 170.825 234.489 171.71 236.047C172.595 237.604 173.038 239.444 173.038 241.567C173.038 243.668 172.595 245.497 171.71 247.055C170.825 248.601 169.587 249.801 167.998 250.655C166.409 251.508 164.558 251.935 162.446 251.935H155.726V231.167ZM159.502 234.591V248.543H162.446C163.79 248.543 164.947 248.239 165.918 247.631C166.899 247.023 167.651 246.196 168.174 245.151C168.707 244.095 168.974 242.9 168.974 241.567C168.974 240.212 168.707 239.012 168.174 237.967C167.651 236.921 166.899 236.1 165.918 235.503C164.947 234.895 163.79 234.591 162.446 234.591H159.502ZM190.015 231.167H195.199L181.503 245.183V240.031L190.015 231.167ZM185.407 239.743L195.775 251.935H190.911L182.783 242.207L185.407 239.743ZM178.015 231.167H181.823V251.935H178.015V231.167Z" fill="url(#paint0_linear_2607_239)"/>
</g>
</g>
<defs>
<filter id="filter0_dd_2607_239" x="0" y="0.934509" width="328" height="308" filterUnits="userSpaceOnUse" color-interpolation-filters="sRGB">
<feFlood flood-opacity="0" result="BackgroundImageFix"/>
<feColorMatrix in="SourceAlpha" type="matrix" values="0 0 0 0 0 0 0 0 0 0 0 0 0 0 0 0 0 0 127 0" result="hardAlpha"/>
<feMorphology radius="50" operator="erode" in="SourceAlpha" result="effect1_dropShadow_2607_239"/>
<feOffset dx="-30" dy="30"/>
<feGaussianBlur stdDeviation="20"/>
<feComposite in2="hardAlpha" operator="out"/>
<feColorMatrix type="matrix" values="0 0 0 0 0.639216 0 0 0 0 0.282353 0 0 0 0 0.454902 0 0 0 1 0"/>
<feBlend mode="normal" in2="BackgroundImageFix" result="effect1_dropShadow_2607_239"/>
<feColorMatrix in="SourceAlpha" type="matrix" values="0 0 0 0 0 0 0 0 0 0 0 0 0 0 0 0 0 0 127 0" result="hardAlpha"/>
<feMorphology radius="50" operator="erode" in="SourceAlpha" result="effect2_dropShadow_2607_239"/>
<feOffset dx="30" dy="30"/>
<feGaussianBlur stdDeviation="20"/>
<feComposite in2="hardAlpha" operator="out"/>
<feColorMatrix type="matrix" values="0 0 0 0 0.992157 0 0 0 0 0.745098 0 0 0 0 0.443137 0 0 0 1 0"/>
<feBlend mode="normal" in2="effect1_dropShadow_2607_239" result="effect2_dropShadow_2607_239"/>
<feBlend mode="normal" in="SourceGraphic" in2="effect2_dropShadow_2607_239" result="shape"/>
</filter>
<linearGradient id="paint0_linear_2607_239" x1="133.573" y1="231.933" x2="196" y2="251.935" gradientUnits="userSpaceOnUse">
<stop stop-color="#5C2576"/>
<stop offset="0.295" stop-color="#BB5374"/>
<stop offset="0.66" stop-color="#F69D71"/>
<stop offset="0.9" stop-color="#FFCC8D"/>
<stop offset="1" stop-color="#FFE0BA"/>
</linearGradient>
<clipPath id="clip0_2607_239">
<rect x="20" y="0.934509" width="288" height="288" rx="32" fill="white"/>
</clipPath>
</defs>
</svg>
